<svg xmlns="http://www.w3.org/2000/svg" viewBox="0 0 900 700" width="900" height="700" preserveAspectRatio="xMidYMid slice" role="img"><defs>
  <linearGradient id="skyGrad" x1="0" y1="0" x2="0" y2="1">
    <stop offset="0%" stop-color="#3a2438"/><stop offset="52%" stop-color="#8a4f3c"/>
    <stop offset="100%" stop-color="#e0a05e"/>
  </linearGradient>
  <linearGradient id="waterGrad" x1="0" y1="0" x2="0" y2="1">
    <stop offset="0%" stop-color="#3a2620"/><stop offset="100%" stop-color="#101820"/>
  </linearGradient>
  <radialGradient id="moonGlow">
    <stop offset="0%" stop-color="#f6f0e2" stop-opacity="0.75"/>
    <stop offset="45%" stop-color="#f6f0e2" stop-opacity="0.18"/>
    <stop offset="100%" stop-color="#f6f0e2" stop-opacity="0"/>
  </radialGradient>
  <radialGradient id="shojiPaper" cx="0.5" cy="0.55" r="0.75">
    <stop offset="0%" stop-color="#ffe9c0"/><stop offset="60%" stop-color="#f4d9a6"/>
    <stop offset="100%" stop-color="#dcbb85"/>
  </radialGradient>
  <radialGradient id="warmGlow">
    <stop offset="0%" stop-color="#ffd99a" stop-opacity="0.85"/>
    <stop offset="100%" stop-color="#ffd99a" stop-opacity="0"/>
  </radialGradient>
  <linearGradient id="vignette" x1="0" y1="0" x2="0" y2="1">
    <stop offset="0%" stop-color="#000000" stop-opacity="0.30"/>
    <stop offset="40%" stop-color="#000000" stop-opacity="0"/>
    <stop offset="100%" stop-color="#000000" stop-opacity="0.38"/>
  </linearGradient>
  <filter id="soft" x="-40%" y="-40%" width="180%" height="180%">
    <feGaussianBlur stdDeviation="18"/>
  </filter>
  <filter id="soft2" x="-40%" y="-40%" width="180%" height="180%">
    <feGaussianBlur stdDeviation="6"/>
  </filter>
  <filter id="washi" x="0" y="0" width="100%" height="100%">
    <feTurbulence type="fractalNoise" baseFrequency="0.9" numOctaves="4" seed="11" result="n"/>
    <feColorMatrix in="n" type="saturate" values="0"/>
  </filter>
</defs><rect width="900" height="700" fill="url(#skyGrad)"/><g><circle cx="700" cy="130" r="184.0" fill="url(#moonGlow)" opacity="0.45"/><circle cx="700" cy="130" r="40" fill="#f6f0e2"/></g><g filter="url(#soft)" opacity="0.180"><ellipse cx="402.6" cy="274.3" rx="299.6" ry="27.0" fill="#ffffff" opacity="0.80"/><ellipse cx="508.0" cy="257.1" rx="226.8" ry="33.8" fill="#ffffff" opacity="0.56"/><ellipse cx="589.4" cy="273.3" rx="429.4" ry="16.6" fill="#ffffff" opacity="0.88"/><ellipse cx="17.3" cy="254.3" rx="237.7" ry="36.1" fill="#ffffff" opacity="0.69"/></g><path d="M 0.00 281.02 C 9.38 283.94, 37.50 297.83, 56.25 298.50 C 75.00 299.18, 93.75 287.59, 112.50 285.07 C 131.25 282.55, 150.00 286.20, 168.75 283.39 C 187.50 280.59, 206.25 272.61, 225.00 268.23 C 243.75 263.85, 262.50 258.85, 281.25 257.10 C 300.00 255.35, 318.75 252.92, 337.50 257.74 C 356.25 262.57, 375.00 281.12, 393.75 286.03 C 412.50 290.94, 431.25 281.83, 450.00 287.20 C 468.75 292.57, 487.50 313.24, 506.25 318.25 C 525.00 323.26, 543.75 316.29, 562.50 317.27 C 581.25 318.25, 600.00 327.10, 618.75 324.12 C 637.50 321.15, 656.25 305.67, 675.00 299.41 C 693.75 293.15, 712.50 291.41, 731.25 286.54 C 750.00 281.66, 768.75 276.63, 787.50 270.16 C 806.25 263.70, 825.00 253.40, 843.75 247.73 C 862.50 242.05, 890.62 238.07, 900.00 236.14 L 900.00 700.00 L 0 700.00 Z" fill="#7a4a3a" opacity="0.550"/><g filter="url(#soft)" opacity="0.300"><ellipse cx="21.4" cy="329.9" rx="295.5" ry="15.8" fill="#ffffff" opacity="0.44"/><ellipse cx="427.1" cy="334.0" rx="250.8" ry="21.2" fill="#ffffff" opacity="0.60"/><ellipse cx="513.6" cy="306.4" rx="419.5" ry="12.0" fill="#ffffff" opacity="0.75"/><ellipse cx="-2.6" cy="308.5" rx="302.8" ry="23.0" fill="#ffffff" opacity="0.63"/></g><path d="M 0.00 304.83 C 9.38 305.46, 37.50 307.29, 56.25 308.61 C 75.00 309.93, 93.75 309.58, 112.50 312.74 C 131.25 315.89, 150.00 321.99, 168.75 327.53 C 187.50 333.07, 206.25 339.81, 225.00 345.98 C 243.75 352.15, 262.50 359.58, 281.25 364.56 C 300.00 369.55, 318.75 373.70, 337.50 375.91 C 356.25 378.11, 375.00 377.63, 393.75 377.81 C 412.50 377.99, 431.25 377.21, 450.00 377.00 C 468.75 376.79, 487.50 378.03, 506.25 376.55 C 525.00 375.06, 543.75 368.29, 562.50 368.10 C 581.25 367.91, 600.00 373.77, 618.75 375.43 C 637.50 377.09, 656.25 377.39, 675.00 378.05 C 693.75 378.72, 712.50 377.72, 731.25 379.42 C 750.00 381.12, 768.75 387.90, 787.50 388.25 C 806.25 388.60, 825.00 381.30, 843.75 381.52 C 862.50 381.74, 890.62 388.24, 900.00 389.58 L 900.00 700.00 L 0 700.00 Z" fill="#3a2620" opacity="0.950"/><rect x="0" y="474.0" width="900" height="226.0" fill="url(#waterGrad)"/><g stroke="#ffffff" fill="none" stroke-linecap="round"><path d="M 402.2 564.6 q 31.3 1.4 62.6 0" stroke-width="1.2" opacity="0.18"/><path d="M 131.9 606.1 q 74.4 -1.8 148.8 0" stroke-width="1.4" opacity="0.14"/><path d="M 393.4 516.9 q 25.7 -1.8 51.4 0" stroke-width="1.3" opacity="0.23"/><path d="M 510.7 681.3 q 39.8 -0.4 79.5 0" stroke-width="1.0" opacity="0.07"/><path d="M 803.6 559.6 q 32.3 -1.6 64.7 0" stroke-width="0.8" opacity="0.19"/><path d="M 90.0 677.8 q 24.9 0.1 49.7 0" stroke-width="1.1" opacity="0.07"/><path d="M 869.7 591.8 q 53.3 2.2 106.6 0" stroke-width="1.8" opacity="0.16"/><path d="M 63.5 519.9 q 63.8 0.5 127.7 0" stroke-width="0.9" opacity="0.23"/><path d="M 22.7 618.8 q 79.9 1.4 159.7 0" stroke-width="1.6" opacity="0.13"/><path d="M 767.0 502.0 q 74.6 -0.4 149.2 0" stroke-width="1.4" opacity="0.24"/><path d="M 728.4 518.2 q 38.1 2.2 76.3 0" stroke-width="0.9" opacity="0.23"/><path d="M 738.0 644.5 q 62.2 -1.2 124.5 0" stroke-width="1.8" opacity="0.10"/></g><g><rect x="211.8" y="478.0" width="176.4" height="71.4" fill="#171d22"/><rect x="217.7" y="493.7" width="17.6" height="28.6" rx="1" fill="#f0b96a" opacity="0.92"/><rect x="200.0" y="476.1" width="52.9" height="63.8" fill="#f0b96a" filter="url(#soft)" opacity="0.42"/><rect x="247.1" y="493.7" width="17.6" height="28.6" rx="1" fill="#f0b96a" opacity="0.92"/><rect x="229.4" y="476.1" width="52.9" height="63.8" fill="#f0b96a" filter="url(#soft)" opacity="0.42"/><rect x="276.5" y="493.7" width="17.6" height="28.6" rx="1" fill="#f0b96a" opacity="0.92"/><rect x="258.8" y="476.1" width="52.9" height="63.8" fill="#f0b96a" filter="url(#soft)" opacity="0.42"/><rect x="305.9" y="493.7" width="17.6" height="28.6" rx="1" fill="#f0b96a" opacity="0.92"/><rect x="288.2" y="476.1" width="52.9" height="63.8" fill="#f0b96a" filter="url(#soft)" opacity="0.42"/><rect x="335.3" y="493.7" width="17.6" height="28.6" rx="1" fill="#f0b96a" opacity="0.92"/><rect x="317.6" y="476.1" width="52.9" height="63.8" fill="#f0b96a" filter="url(#soft)" opacity="0.42"/><rect x="364.7" y="493.7" width="17.6" height="28.6" rx="1" fill="#f0b96a" opacity="0.92"/><rect x="347.0" y="476.1" width="52.9" height="63.8" fill="#f0b96a" filter="url(#soft)" opacity="0.42"/><path d="M 178.2 476.2 Q 224.5 448.1 273.2 423.5 L 326.8 423.5 Q 375.5 448.1 421.8 476.2 Q 300.0 491.4 178.2 476.2 Z" fill="#171d22" opacity="1.00"/><rect x="266.8" y="417.1" width="66.5" height="7.6" rx="2.9" fill="#171d22" opacity="1.00"/></g><g opacity="0.95" fill="#141c22"><path d="M 96.00 530.00 C 95.00 523.50, 89.25 504.00, 90.00 491.00 C 90.75 478.00, 100.00 465.00, 100.50 452.00 C 101.00 439.00, 94.25 419.50, 93.00 413.00" fill="none" stroke="#141c22" stroke-width="5.1" stroke-linecap="round"/><path d="M 33.8 479.0 q 21.9 -25.2 87.4 0 q 21.9 15.8 -87.4 0 Z"/><path d="M 96.0 488.0 L 77.5 479.0" stroke="#141c22" stroke-width="2.7" stroke-linecap="round" fill="none"/><path d="M 77.4 456.5 q 17.0 -22.0 67.8 0 q 17.0 13.7 -67.8 0 Z"/><path d="M 96.0 465.5 L 111.3 456.5" stroke="#141c22" stroke-width="2.7" stroke-linecap="round" fill="none"/><path d="M 45.0 434.0 q 14.6 -18.7 58.5 0 q 14.6 11.7 -58.5 0 Z"/><path d="M 96.0 443.0 L 74.3 434.0" stroke="#141c22" stroke-width="2.7" stroke-linecap="round" fill="none"/><path d="M 92.3 411.5 q 10.5 -15.5 42.0 0 q 10.5 9.7 -42.0 0 Z"/><path d="M 96.0 420.5 L 113.3 411.5" stroke="#141c22" stroke-width="2.7" stroke-linecap="round" fill="none"/></g><g opacity="0.95" fill="#141c22"><path d="M 824.00 508.00 C 823.20 502.80, 818.60 487.20, 819.20 476.80 C 819.80 466.40, 827.20 456.00, 827.60 445.60 C 828.00 435.20, 822.60 419.60, 821.60 414.40" fill="none" stroke="#141c22" stroke-width="4.1" stroke-linecap="round"/><path d="M 775.0 467.2 q 16.7 -20.2 66.8 0 q 16.7 12.6 -66.8 0 Z"/><path d="M 824.0 474.4 L 808.4 467.2" stroke="#141c22" stroke-width="2.2" stroke-linecap="round" fill="none"/><path d="M 810.0 449.2 q 13.1 -17.6 52.3 0 q 13.1 11.0 -52.3 0 Z"/><path d="M 824.0 456.4 L 836.1 449.2" stroke="#141c22" stroke-width="2.2" stroke-linecap="round" fill="none"/><path d="M 784.5 431.2 q 13.0 -15.0 52.1 0 q 13.0 9.4 -52.1 0 Z"/><path d="M 824.0 438.4 L 810.6 431.2" stroke="#141c22" stroke-width="2.2" stroke-linecap="round" fill="none"/><path d="M 819.8 413.2 q 8.2 -12.4 32.8 0 q 8.2 7.7 -32.8 0 Z"/><path d="M 824.0 420.4 L 836.2 413.2" stroke="#141c22" stroke-width="2.2" stroke-linecap="round" fill="none"/></g><g><circle cx="662" cy="483.0" r="40.0" fill="#f3c777" opacity="0.28" filter="url(#soft)"/><rect x="658.5" y="492.0" width="7.0" height="34.0" fill="#3a3f42"/><rect x="651.0" y="474.0" width="22.0" height="18.0" rx="2.0" fill="#3a3f42"/><rect x="656.0" y="478.0" width="12.0" height="11.0" fill="#f3c777" opacity="0.9"/><path d="M 642.0 474.0 Q 662 456.0 682.0 474.0 Z" fill="#3a3f42"/><circle cx="662" cy="456.0" r="3.6" fill="#3a3f42"/></g><g opacity="0.70"><g transform="translate(566.4 450.5) rotate(169)" opacity="0.73"><path d="M 0 -8.2 L 6.6 0 L 0 8.2 L -6.6 0 Z" fill="#d96a3c"/></g><g transform="translate(425.3 533.9) rotate(143)" opacity="0.65"><path d="M 0 -8.8 L 7.1 0 L 0 8.8 L -7.1 0 Z" fill="#d96a3c"/></g><g transform="translate(385.4 28.0) rotate(116)" opacity="0.71"><path d="M 0 -4.1 L 3.3 0 L 0 4.1 L -3.3 0 Z" fill="#d96a3c"/></g><g transform="translate(202.0 670.7) rotate(187)" opacity="0.97"><path d="M 0 -10.3 L 8.2 0 L 0 10.3 L -8.2 0 Z" fill="#d96a3c"/></g><g transform="translate(475.8 348.9) rotate(113)" opacity="0.93"><path d="M 0 -7.5 L 6.0 0 L 0 7.5 L -6.0 0 Z" fill="#d96a3c"/></g><g transform="translate(864.4 260.5) rotate(84)" opacity="0.75"><path d="M 0 -4.4 L 3.5 0 L 0 4.4 L -3.5 0 Z" fill="#d96a3c"/></g><g transform="translate(290.1 248.0) rotate(109)" opacity="0.54"><path d="M 0 -9.0 L 7.2 0 L 0 9.0 L -7.2 0 Z" fill="#d96a3c"/></g><g transform="translate(500.6 548.8) rotate(110)" opacity="0.95"><path d="M 0 -9.4 L 7.5 0 L 0 9.4 L -7.5 0 Z" fill="#d96a3c"/></g><g transform="translate(563.5 151.8) rotate(206)" opacity="0.99"><path d="M 0 -6.5 L 5.2 0 L 0 6.5 L -5.2 0 Z" fill="#d96a3c"/></g><g transform="translate(341.1 628.6) rotate(64)" opacity="0.56"><path d="M 0 -8.8 L 7.0 0 L 0 8.8 L -7.0 0 Z" fill="#d96a3c"/></g><g transform="translate(292.8 442.7) rotate(165)" opacity="0.62"><path d="M 0 -5.1 L 4.0 0 L 0 5.1 L -4.0 0 Z" fill="#d96a3c"/></g><g transform="translate(567.5 301.4) rotate(34)" opacity="0.56"><path d="M 0 -10.5 L 8.4 0 L 0 10.5 L -8.4 0 Z" fill="#d96a3c"/></g><g transform="translate(897.5 380.9) rotate(150)" opacity="0.54"><path d="M 0 -7.7 L 6.2 0 L 0 7.7 L -6.2 0 Z" fill="#d96a3c"/></g><g transform="translate(274.7 568.6) rotate(149)" opacity="1.00"><path d="M 0 -5.9 L 4.7 0 L 0 5.9 L -4.7 0 Z" fill="#d96a3c"/></g><g transform="translate(304.9 312.0) rotate(334)" opacity="0.88"><path d="M 0 -6.4 L 5.1 0 L 0 6.4 L -5.1 0 Z" fill="#d96a3c"/></g><g transform="translate(68.1 282.7) rotate(311)" opacity="0.57"><path d="M 0 -4.2 L 3.3 0 L 0 4.2 L -3.3 0 Z" fill="#d96a3c"/></g><g transform="translate(510.5 351.5) rotate(55)" opacity="0.68"><path d="M 0 -10.2 L 8.1 0 L 0 10.2 L -8.1 0 Z" fill="#d96a3c"/></g><g transform="translate(271.9 396.4) rotate(163)" opacity="0.66"><path d="M 0 -8.7 L 6.9 0 L 0 8.7 L -6.9 0 Z" fill="#d96a3c"/></g><g transform="translate(874.5 61.9) rotate(302)" opacity="0.85"><path d="M 0 -10.2 L 8.2 0 L 0 10.2 L -8.2 0 Z" fill="#d96a3c"/></g><g transform="translate(87.1 355.2) rotate(112)" opacity="0.68"><path d="M 0 -5.3 L 4.2 0 L 0 5.3 L -4.2 0 Z" fill="#d96a3c"/></g><g transform="translate(146.9 132.9) rotate(181)" opacity="0.67"><path d="M 0 -6.8 L 5.4 0 L 0 6.8 L -5.4 0 Z" fill="#d96a3c"/></g><g transform="translate(756.1 492.5) rotate(85)" opacity="0.83"><path d="M 0 -7.7 L 6.2 0 L 0 7.7 L -6.2 0 Z" fill="#d96a3c"/></g><g transform="translate(646.7 650.7) rotate(275)" opacity="0.90"><path d="M 0 -6.5 L 5.2 0 L 0 6.5 L -5.2 0 Z" fill="#d96a3c"/></g><g transform="translate(618.0 381.8) rotate(21)" opacity="0.73"><path d="M 0 -10.4 L 8.3 0 L 0 10.4 L -8.3 0 Z" fill="#d96a3c"/></g><g transform="translate(213.7 346.8) rotate(185)" opacity="0.84"><path d="M 0 -8.5 L 6.8 0 L 0 8.5 L -6.8 0 Z" fill="#d96a3c"/></g><g transform="translate(193.3 87.4) rotate(237)" opacity="0.81"><path d="M 0 -6.5 L 5.2 0 L 0 6.5 L -5.2 0 Z" fill="#d96a3c"/></g><g transform="translate(687.9 198.8) rotate(93)" opacity="0.70"><path d="M 0 -5.8 L 4.6 0 L 0 5.8 L -4.6 0 Z" fill="#d96a3c"/></g><g transform="translate(413.2 223.3) rotate(284)" opacity="0.98"><path d="M 0 -9.8 L 7.8 0 L 0 9.8 L -7.8 0 Z" fill="#d96a3c"/></g><g transform="translate(443.9 166.1) rotate(81)" opacity="0.91"><path d="M 0 -4.3 L 3.4 0 L 0 4.3 L -3.4 0 Z" fill="#d96a3c"/></g><g transform="translate(590.4 320.2) rotate(322)" opacity="0.68"><path d="M 0 -10.2 L 8.1 0 L 0 10.2 L -8.1 0 Z" fill="#d96a3c"/></g><g transform="translate(306.6 217.4) rotate(21)" opacity="0.87"><path d="M 0 -8.9 L 7.1 0 L 0 8.9 L -7.1 0 Z" fill="#d96a3c"/></g><g transform="translate(5.1 55.1) rotate(237)" opacity="0.82"><path d="M 0 -8.5 L 6.8 0 L 0 8.5 L -6.8 0 Z" fill="#d96a3c"/></g><g transform="translate(698.6 490.1) rotate(32)" opacity="0.88"><path d="M 0 -4.1 L 3.3 0 L 0 4.1 L -3.3 0 Z" fill="#d96a3c"/></g><g transform="translate(383.8 355.1) rotate(254)" opacity="0.64"><path d="M 0 -8.1 L 6.5 0 L 0 8.1 L -6.5 0 Z" fill="#d96a3c"/></g></g><rect width="900" height="700" fill="url(#vignette)"/><rect width="900" height="700" filter="url(#washi)" opacity="0.055" style="mix-blend-mode:overlay"/></svg>